<?xml version="1.0" standalone="no"?>
<!DOCTYPE svg PUBLIC "-//W3C//DTD SVG 20010904//EN"
 "http://www.w3.org/TR/2001/REC-SVG-20010904/DTD/svg10.dtd">
<svg version="1.0" xmlns="http://www.w3.org/2000/svg"
 width="294.000000pt" height="298.000000pt" viewBox="0 0 294.000000 298.000000"
 preserveAspectRatio="xMidYMid meet">
<metadata>
Created by potrace 1.10, written by Peter Selinger 2001-2011
</metadata>
<g transform="translate(0.000000,298.000000) scale(0.050000,-0.050000)"
fill="#000000" stroke="none">
<path d="M2800 5584 c-698 -183 -909 -962 -407 -1504 446 -482 1264 -243 1457
426 182 632 -414 1244 -1050 1078z"/>
<path d="M333 4337 c-16 -603 -16 -913 0 -975 l13 -48 482 15 c265 8 626 21
802 29 l320 14 158 108 c135 93 153 111 123 129 -19 12 -78 53 -130 91 -53 39
-237 156 -409 260 -358 217 -952 600 -1170 755 -82 58 -154 105 -162 105 -7 0
-20 -217 -27 -483z"/>
<path d="M5179 4564 c-226 -139 -494 -308 -596 -374 -611 -396 -873 -570 -877
-584 -4 -16 163 -122 294 -186 72 -35 637 -84 1305 -113 l295 -13 0 370 c0
203 6 547 13 763 8 232 6 393 -5 392 -10 0 -203 -115 -429 -255z"/>
<path d="M2472 3496 c-18 -10 -32 -34 -32 -55 0 -35 327 -449 454 -574 63 -61
63 -63 26 -97 -222 -201 -166 -1700 64 -1726 77 -9 179 296 209 626 18 193
-66 962 -116 1065 l-41 85 90 95 c281 297 468 607 349 579 -211 -50 -440 -60
-659 -26 -124 18 -245 36 -269 40 -24 3 -58 -2 -75 -12z"/>
<path d="M1858 2887 c-170 -163 -413 -389 -539 -502 -309 -275 -303 -263 -170
-369 106 -85 1412 -1438 1563 -1620 149 -179 150 -194 -58 774 -227 1054 -281
1287 -344 1501 -37 125 -73 277 -81 338 -26 211 -26 211 -371 -122z"/>
<path d="M1590 3145 c-687 -34 -1220 -70 -1260 -85 -98 -37 -67 -104 156 -336
113 -118 240 -257 282 -309 107 -133 28 -180 625 370 400 368 401 370 197 360z"/>
<path d="M4203 3127 c4 -19 98 -117 209 -216 112 -100 274 -261 360 -358 87
-97 186 -194 220 -215 l62 -38 56 84 c31 47 163 194 293 328 233 240 280 319
216 359 -91 56 -1426 109 -1416 56z"/>
<path d="M3761 3097 c-18 -42 -59 -220 -243 -1067 -31 -143 -75 -372 -98 -510
-45 -268 -104 -505 -210 -840 -83 -261 -100 -340 -73 -340 34 0 330 291 633
621 455 495 914 983 1005 1068 114 105 125 86 -230 419 -173 162 -391 370
-485 461 -229 223 -272 251 -299 188z"/>
</g>
</svg>
